inDegrees=yes
name=ik_lifting_orientations
DataType=double
version=3
OpenSimVersion=4.5-2024-01-10-34fd6af
endheader
time	pelvis_tilt	pelvis_list	pelvis_rotation	pelvis_tx	pelvis_ty	pelvis_tz	hip_flexion_r	hip_adduction_r	hip_rotation_r	knee_angle_r	knee_angle_r_beta	ankle_angle_r	subtalar_angle_r	mtp_angle_r	hip_flexion_l	hip_adduction_l	hip_rotation_l	knee_angle_l	knee_angle_l_beta	ankle_angle_l	subtalar_angle_l	mtp_angle_l	lumbar_extension	lumbar_bending	lumbar_rotation	arm_flex_r	arm_add_r	arm_rot_r	elbow_flex_r	pro_sup_r	wrist_flex_r	wrist_dev_r	arm_flex_l	arm_add_l	arm_rot_l	elbow_flex_l	pro_sup_l	wrist_flex_l	wrist_dev_l
2.1	-4.558770042947928	-1.890322722880213	-74.62673752671066	0	0.9399999998679526	0	44.95135475648959	-10.01349123472805	0	59.91299687578891	1.045679060219593	-5.002002440181269	0	0	44.95135475648959	-10.01349123472805	0	59.91299687578891	1.045679060219593	-5.002002440181269	0	0	-18.94361745259825	5.889477195785075	-10.07122242512322	77.54163753612144	-24.04794717885406	34.74370715873196	80.61337417307202	1.002983849027448	0	0	0	-12.85165330121244	0	89.01257395509209	1.002983849027448	0	0
2.11	-4.541047683319322	-1.743516325368656	-74.75663885945495	0	0.9399999998679526	0	44.95142009691528	-10.01342875801961	0	59.91308928079573	1.045680672991207	-5.001990392488937	0	0	44.95142009691528	-10.01342875801961	0	59.91308928079573	1.045680672991207	-5.001990392488937	0	0	-19.17579045403789	5.811278499143524	-9.90286735855886	80.03216491943363	-22.02483656686627	35.92075386476339	75.20176023210632	1.002043869991569	0	0	0	-12.85313800620101	0	89.01349918615502	1.002043869991569	0	0
2.12	-4.607964933874111	-1.714655929032982	-74.62740756925533	0	0.9399999998679526	0	44.95150348583554	-10.01334902794605	0	59.91320694665504	1.045682726647869	-5.001975029214954	0	0	44.95150348583554	-10.01334902794605	0	59.91320694665504	1.045682726647869	-5.001975029214954	0	0	-19.63685556613639	5.986503531475829	-9.956599314211108	82.55639517921695	-19.99118228509324	37.04884425301432	69.89072552844451	1.000844920101217	0	0	0	-12.85503068670663	0	89.01467932489875	1.000844920101217	0	0
2.13	-4.619749287759012	-1.714782549466861	-74.55952376469413	0	0.9399999998679526	0	44.95157030096903	-10.01328549366102	0	59.91330140370206	1.045684375234341	-5.001962809592399	0	0	44.95157030096903	-10.01328549366102	0	59.91330140370206	1.045684375234341	-5.001962809592399	0	0	-20.133686616381	6.042133633692509	-9.842896752078671	85.08335767052085	-18.2190939852061	37.79163858366428	63.67202668250975	0.9998832503170474	0	0	0	-12.85655000619724	0	89.0156259063998	0.9998832503170474	0	0
2.14	-4.606537493192373	-1.641152486159181	-74.56413650706554	0	0.9399999998679526	0	44.95162756574823	-10.01323138700923	0	59.91338259844518	1.045685792349944	-5.001952423246854	0	0	44.95162756574823	-10.01323138700923	0	59.91338259844518	1.045685792349944	-5.001952423246854	0	0	-20.62251930787964	6.071288904922577	-9.797009599345312	87.4629760350967	-16.39918630666471	38.41146527572185	58.33911969781114	0.999057863386569	0	0	0	-12.85785548649566	0	89.01643834329438	0.999057863386569	0	0
2.15	-4.622399723074265	-1.583102872307259	-74.62447302582692	0	0.9399999998679526	0	44.95169257273912	-10.01316997828081	0	59.91347457420942	1.045687397629862	-5.00194064442257	0	0	44.95169257273912	-10.01316997828081	0	59.91347457420942	1.045687397629862	-5.00194064442257	0	0	-21.16681014845082	6.068853554250001	-9.520441361453397	89.71750401046724	-14.77180467850808	38.9653650394952	53.1232163181878	0.9981213892204036	0	0	0	-12.85933584223474	0	89.01736012450166	0.9981213892204036	0	0
2.16	-4.651258327668955	-1.527328886577153	-74.5531287844853	0	0.9399999998679526	0	44.95171742929703	-10.01314664105121	0	59.91350997663275	1.045688015518712	-5.001936171091744	0	0	44.95171742929703	-10.01314664105121	0	59.91350997663275	1.045688015518712	-5.001936171091744	0	0	-21.69956167629288	6.119410205464788	-9.358196307707001	91.87493501778195	-13.20270847298816	39.39418613192137	47.95822576761555	0.997762414053159	0	0	0	-12.85990459394668	0	89.0177134674812	0.997762414053159	0	0
2.17	-4.653978520732377	-1.478311745079666	-74.47895493252152	0	0.9399999998679526	0	44.95173934131648	-10.01312616806134	0	59.91354128011353	1.045688561867519	-5.001932251500051	0	0	44.95173934131648	-10.01312616806134	0	59.91354128011353	1.045688561867519	-5.001932251500051	0	0	-22.2676151105565	6.142412842231525	-9.173941047008304	93.91941735215053	-11.72350458054797	39.7210809811551	43.18325671340602	0.9974455574247371	0	0	0	-12.86040714258445	0	89.01802535275051	0.9974455574247371	0	0
2.18	-4.767897328965892	-1.264368653273572	-74.37137404792101	0	0.9399999998679526	0	44.9517650608101	-10.01310196261076	0	59.9135777733085	1.045689198793926	-5.001927612407334	0	0	44.9517650608101	-10.01310196261076	0	59.9135777733085	1.045689198793926	-5.001927612407334	0	0	-22.62346645312808	6.250006160970045	-9.02974956510341	95.76503905861405	-10.39537076781678	39.95188756907618	38.65362288095125	0.9970745791134132	0	0	0	-12.86099424635651	0	89.01839051054536	0.9970745791134132	0	0
2.19	-4.863294532360521	-1.076711334198587	-74.21347067819966	0	0.9399999998679526	0	44.95179265364529	-10.01307593651744	0	59.91361681657982	1.045689880227561	-5.001922623862167	0	0	44.95179265364529	-10.01307593651744	0	59.91361681657982	1.045689880227561	-5.001922623862167	0	0	-22.99702720712732	6.358544766658128	-8.909404798377007	97.70140111851993	-9.088125791469839	40.25261626851663	33.56473213806939	0.9966769555194247	0	0	0	-12.8616229870565	0	89.01878189556473	0.9966769555194247	0	0
2.2	-5.083404683598604	-0.7435574660346053	-74.10724214953123	0	0.9399999998679526	0	44.9518175554758	-10.01305252799302	0	59.91365211038465	1.045690496220661	-5.001918141491473	0	0	44.9518175554758	-10.01305252799302	0	59.91365211038465	1.045690496220661	-5.001918141491473	0	0	-23.3030448773759	6.485578036418254	-8.643972320408473	99.32688855487463	-8.159474621155301	40.32810214885016	30.46409161034608	0.996317835766924	0	0	0	-12.86219118611929	0	89.01913538085748	0.996317835766924	0	0
2.21	-5.286391107929524	-0.4718977810699039	-74.01668415331115	0	0.9399999998679526	0	44.95183840824976	-10.01303288149174	0	59.91368159037758	1.045691010743601	-5.001914378773417	0	0	44.95183840824976	-10.01303288149174	0	59.91368159037758	1.045691010743601	-5.001914378773417	0	0	-23.55446525660297	6.627990693617357	-8.566307842020347	100.9188610294981	-7.08130469287342	40.4340961256279	26.31145548114043	0.9960173748106379	0	0	0	-12.8626662049774	0	89.01943112768704	0.9960173748106379	0	0
2.22	-5.410937263862254	-0.244758789693021	-73.70067396756228	0	0.9399999998679526	0	44.95186118784272	-10.01301134918964	0	59.91371368567783	1.045691570912265	-5.001910253291206	0	0	44.95186118784272	-10.01301134918964	0	59.91371368567783	1.045691570912265	-5.001910253291206	0	0	-23.8998669280651	6.812232082266604	-8.70736273823778	102.3031464631588	-6.379186591438257	40.28653954986655	22.64368438513373	0.9956895478395367	0	0	0	-12.86318393912498	0	89.01975381116472	0.9956895478395367	0	0
2.23	-5.561005869259807	0.092473103612511	-73.53772342615885	0	0.9399999998679526	0	44.9518872784798	-10.01298665451082	0	59.91375037433826	1.045692211250188	-5.001905522086234	0	0	44.9518872784798	-10.01298665451082	0	59.91375037433826	1.045692211250188	-5.001905522086234	0	0	-24.08474098972368	6.893739352405747	-8.65212657356909	103.5851864423739	-6.00647089878134	40.17751726950939	18.4065347041373	0.9953143112896361	0	0	0	-12.86377620190989	0	89.02012316037916	0.9953143112896361	0	0
2.24	-5.838362477613901	0.4162847057908184	-73.5172682160465	0	0.9399999998679526	0	44.95190673405122	-10.012968283357	0	59.91377776065023	1.045692689231501	-5.001902005005515	0	0	44.95190673405122	-10.012968283357	0	59.91377776065023	1.045692689231501	-5.001902005005515	0	0	-24.27073246220252	7.054850537708917	-8.413225638775218	104.8480911145891	-5.513265430651201	40.10739826403881	14.54991028353094	0.9950343608371589	0	0	0	-12.86421823878417	0	89.02039871850465	0.9950343608371589	0	0
2.25	-5.890247048502169	0.6083100052993339	-73.28131690051995	0	0.9399999998679526	0	44.95192164868455	-10.01295422499427	0	59.91379876950489	1.045693055905188	-5.001899315146828	0	0	44.95192164868455	-10.01295422499427	0	59.91379876950489	1.045693055905188	-5.001899315146828	0	0	-24.58007696536107	7.137847318734032	-8.424058496549602	105.9384630352484	-5.023231190900337	40.07245682303823	11.34444176704136	0.9948196756537985	0	0	0	-12.86455731259776	0	89.02061003535174	0.9948196756537985	0	0
2.26	-6.121690319814296	0.8954693905326883	-73.28546519952657	0	0.9399999998679526	0	44.95194773272606	-10.01292959030507	0	59.91383542912022	1.045693695736178	-5.001894600937414	0	0	44.95194773272606	-10.01292959030507	0	59.91383542912022	1.045693695736178	-5.001894600937414	0	0	-24.71153184041462	7.294718069244359	-8.261794135641628	107.0781881371145	-4.52819380120496	39.98048729215981	7.771779023937476	0.9944445068394656	0	0	0	-12.86514944692417	0	89.0209793178946	0.9944445068394656	0	0
2.27	-6.270367357901049	1.12959499544487	-73.24677441066044	0	0.9399999998679526	0	44.95196353582646	-10.01291469652459	0	59.91385765692466	1.045694083684551	-5.001891752770751	0	0	44.95196353582646	-10.01291469652459	0	59.91385765692466	1.045694083684551	-5.001891752770751	0	0	-24.86778008980998	7.351793915824365	-8.076680492018493	107.9951040434042	-4.089877673329228	39.9255491717019	4.894945738248728	0.994217117310385	0	0	0	-12.86550844828668	0	89.02120313976016	0.994217117310385	0	0
